<svg width="76" height="33" viewBox="0 0 76 33" fill="none" xmlns="http://www.w3.org/2000/svg">
<g clip-path="url(#clip0_4_245)">
<path d="M17.5875 31.7619V28.9537L17.5194 28.9779C16.7366 29.2843 15.8849 29.4591 15.016 29.4916C14.1129 29.5488 13.2154 29.3349 12.4951 28.8908C11.9808 28.5699 11.5983 28.1308 11.3979 27.6311C11.1768 27.0866 11.1513 26.5026 11.3243 25.9468C11.4849 25.3785 11.8787 24.8707 12.4417 24.5063C12.9409 24.1688 13.5509 23.9561 14.1972 23.8944C15.3395 23.7919 16.4937 23.9669 17.5125 24.3968L17.5875 24.4283V21.6044L17.4292 21.5701C16.4091 21.3053 15.3381 21.1919 14.2681 21.2356C13.2935 21.2558 12.3337 21.4333 11.4451 21.7577C10.5481 22.0897 9.75723 22.5837 9.13334 23.2016C8.18521 24.1715 7.659 25.3671 7.63615 26.6032C7.6133 27.8393 8.09509 29.0471 9.00695 30.0395C9.9297 30.9937 11.2251 31.6671 12.6819 31.9499C14.2174 32.252 15.8264 32.2059 17.3326 31.8186L17.5875 31.7619Z" fill="#00BCEB"/>
<path d="M51.9625 31.7619V28.9537L51.8944 28.9779C51.1116 29.2843 50.2599 29.4591 49.391 29.4916C48.4879 29.5488 47.5904 29.3349 46.8701 28.8908C46.3558 28.5699 45.9733 28.1308 45.7729 27.6311C45.5518 27.0866 45.5263 26.5026 45.6993 25.9468C45.8599 25.3785 46.2537 24.8707 46.8167 24.5063C47.3159 24.1688 47.9259 23.9561 48.5722 23.8944C49.7145 23.7919 50.8687 23.9669 51.8875 24.3968L51.9625 24.4283V21.6044L51.8042 21.5701C50.7841 21.3053 49.7131 21.1919 48.6431 21.2356C47.6685 21.2558 46.7087 21.4333 45.8201 21.7577C44.9231 22.0897 44.1322 22.5837 43.5083 23.2016C42.5602 24.1715 42.034 25.3671 42.0112 26.6032C41.9883 27.8393 42.4701 29.0471 43.3819 30.0395C44.3047 30.9937 45.6001 31.6671 47.0569 31.9499C48.5924 32.252 50.2014 32.2059 51.7076 31.8186L51.9625 31.7619Z" fill="#00BCEB"/>
<path fill-rule="evenodd" clip-rule="evenodd" d="M29.8542 29.4309L29.8411 31.8494L30.0598 31.8798C30.7466 31.9836 31.4397 32.0555 32.1362 32.0959C32.7461 32.1416 33.3593 32.1511 33.9709 32.1245C34.5556 32.0909 35.1341 32.0022 35.6931 31.8618C36.3501 31.7117 36.9594 31.4492 37.4799 31.0921C37.9485 30.7686 38.3067 30.3535 38.5202 29.8862C38.8927 29.104 38.8853 28.2367 38.4994 27.4587C38.2964 27.055 37.9766 26.6965 37.5667 26.4134C37.1705 26.1248 36.7048 25.9055 36.1987 25.7694L33.9417 25.0924C33.6721 24.9998 33.4533 24.8312 33.3258 24.618C33.2767 24.5305 33.2534 24.4349 33.2578 24.3389C33.2621 24.2428 33.2939 24.1489 33.3508 24.0645C33.3912 24.0045 33.442 23.9495 33.5015 23.9011C33.5981 23.8213 33.7108 23.7554 33.8348 23.7063C34.0869 23.6052 34.3591 23.5418 34.639 23.5171C35.1165 23.4614 35.6019 23.4656 36.0779 23.5294C36.6404 23.5789 37.198 23.6591 37.7459 23.7709L37.8626 23.7916V21.5606L37.6473 21.523C37.088 21.4148 36.5212 21.3332 35.9501 21.2788C35.2098 21.1989 34.4599 21.1962 33.7188 21.2709C32.78 21.3404 31.8869 21.6309 31.1501 22.1063C30.6506 22.4233 30.2706 22.8468 30.0529 23.329C29.7253 24.0637 29.7246 24.8677 30.0508 25.6027C30.2188 25.9676 30.4883 26.2972 30.8397 26.565C31.1431 26.8019 31.4869 27.0029 31.8605 27.1629C32.3522 27.3762 32.873 27.5418 33.4126 27.6558C33.5911 27.699 33.7681 27.7445 33.9445 27.7922L34.2119 27.8713L34.2883 27.8966C34.5522 27.973 34.7924 28.0931 34.9952 28.2492C35.1355 28.3558 35.2438 28.4866 35.3112 28.6326C35.3529 28.7657 35.3535 28.9049 35.3133 29.0385C35.2288 29.2537 35.0433 29.4335 34.7966 29.5393C34.5279 29.6522 34.2366 29.7258 33.9362 29.7565C33.4954 29.8131 33.0484 29.8314 32.6029 29.811C32.0186 29.7756 31.4373 29.713 30.8619 29.6235C30.5612 29.573 30.2619 29.5168 29.9654 29.4534L29.8542 29.4309ZM22.1154 31.9471H25.4001V21.4146H22.1154V31.9471ZM60.1424 24.5248C60.4935 24.2936 60.8977 24.121 61.3318 24.0169C61.7659 23.9128 62.2211 23.8793 62.6713 23.9183C63.1215 23.9572 63.5577 24.068 63.9547 24.2441C64.3516 24.4201 64.7014 24.6581 64.9839 24.9441C65.2665 25.2301 65.476 25.5586 65.6006 25.9105C65.7251 26.2624 65.7622 26.6308 65.7096 26.9943C65.657 27.3579 65.5157 27.7094 65.2941 28.0286C65.0724 28.3477 64.7747 28.6282 64.4181 28.8538C63.7066 29.2984 62.8074 29.4989 61.9145 29.4123C61.0216 29.3256 60.2067 28.9587 59.6455 28.3906C59.0843 27.8225 58.8219 27.0988 58.9149 26.3757C59.0078 25.6526 59.4487 24.9875 60.1424 24.5248ZM55.3737 26.6857C55.3893 27.5077 55.6311 28.3167 56.0814 29.0539C56.5317 29.7911 57.1793 30.4381 57.9772 30.9478C58.7751 31.4576 59.7034 31.8175 60.6947 32.0013C61.686 32.1851 62.7154 32.1883 63.7084 32.0106C65.0422 31.8076 66.2679 31.2813 67.2229 30.5017C68.1778 29.7221 68.8167 28.726 69.0546 27.6458C69.2925 26.5656 69.1183 25.4525 68.5549 24.4543C67.9916 23.4561 67.0659 22.6201 65.9008 22.0574C64.866 21.5397 63.6803 21.2524 62.4638 21.2248C61.2474 21.1972 60.0436 21.4302 58.9745 21.9002C57.9054 22.3702 57.0092 23.0604 56.3766 23.9009C55.7441 24.7413 55.3979 25.7021 55.373 26.6857" fill="#00BCEB"/>
<path d="M0.902832 12.9503C0.926216 13.1974 1.03524 13.434 1.21739 13.6333C1.39955 13.8325 1.64746 13.9862 1.93272 14.0767C2.21797 14.1673 2.52901 14.191 2.83017 14.1452C3.13134 14.0994 3.41044 13.9859 3.63547 13.8177C3.93686 13.5915 4.12158 13.2816 4.15214 12.9503V10.031C4.14335 9.6874 3.96832 9.36024 3.6646 9.11972C3.36087 8.87921 2.95264 8.74451 2.52748 8.74451C2.10233 8.74451 1.6941 8.87921 1.39037 9.11972C1.08665 9.36024 0.911621 9.6874 0.902832 10.031V12.9503Z" fill="#00BCEB"/>
<path d="M9.89587 12.9503C9.92702 13.2816 10.1117 13.5912 10.413 13.8172C10.7142 14.0431 11.1099 14.1688 11.5209 14.1691C11.9319 14.1691 12.3276 14.0434 12.6289 13.8174C12.9301 13.5914 13.1145 13.2817 13.1452 12.9503V6.40606C13.1301 6.06586 12.9523 5.74367 12.6493 5.5073C12.3463 5.27094 11.9416 5.13885 11.5205 5.13885C11.0994 5.13885 10.6948 5.27094 10.3917 5.5073C10.0887 5.74367 9.91095 6.06586 9.89587 6.40606V12.9509" fill="#00BCEB"/>
<path d="M18.8417 15.5861C18.8711 15.9181 19.055 16.2288 19.3564 16.4556C19.6578 16.6824 20.0542 16.8085 20.466 16.8085C20.8777 16.8085 21.2742 16.6824 21.5756 16.4556C21.8769 16.2288 22.0608 15.9181 22.0903 15.5861V1.43035C22.0692 1.09359 21.8888 0.776255 21.5865 0.543935C21.2842 0.311615 20.8831 0.182068 20.466 0.182068C20.0489 0.182068 19.6477 0.311615 19.3454 0.543935C19.0431 0.776255 18.8628 1.09359 18.8417 1.43035V15.5861Z" fill="#00BCEB"/>
<path d="M27.8646 12.9503C27.8958 13.2816 28.0804 13.5912 28.3817 13.8172C28.683 14.0431 29.0787 14.1688 29.4896 14.1691C29.9006 14.1691 30.2964 14.0434 30.5976 13.8174C30.8988 13.5914 31.0833 13.2817 31.1139 12.9503V6.40606C31.0989 6.06586 30.9211 5.74367 30.6181 5.5073C30.315 5.27094 29.9104 5.13885 29.4893 5.13885C29.0682 5.13885 28.6635 5.27094 28.3605 5.5073C28.0575 5.74367 27.8797 6.06586 27.8646 6.40606V12.9509" fill="#00BCEB"/>
<path d="M36.8403 12.9503C36.8637 13.1974 36.9727 13.434 37.1549 13.6333C37.337 13.8325 37.585 13.9862 37.8702 14.0767C38.1555 14.1673 38.4665 14.191 38.7677 14.1452C39.0688 14.0994 39.3479 13.9859 39.573 13.8177C39.8744 13.5915 40.0591 13.2816 40.0896 12.9503V10.031C40.0808 9.6874 39.9058 9.36024 39.6021 9.11972C39.2984 8.87921 38.8901 8.74451 38.465 8.74451C38.0398 8.74451 37.6316 8.87921 37.3279 9.11972C37.0242 9.36024 36.8491 9.6874 36.8403 10.031V12.9503Z" fill="#00BCEB"/>
<path d="M45.8334 12.9503C45.8645 13.2816 46.0492 13.5912 46.3505 13.8172C46.6517 14.0431 47.0474 14.1688 47.4584 14.1691C47.8694 14.1691 48.2651 14.0434 48.5664 13.8174C48.8676 13.5914 49.052 13.2817 49.0827 12.9503V6.40606C49.0676 6.06586 48.8898 5.74367 48.5868 5.5073C48.2838 5.27094 47.8791 5.13885 47.458 5.13885C47.0369 5.13885 46.6323 5.27094 46.3292 5.5073C46.0262 5.74367 45.8484 6.06586 45.8334 6.40606V12.9509" fill="#00BCEB"/>
<path d="M54.7792 15.5861C54.8086 15.9181 54.9925 16.2288 55.2939 16.4556C55.5953 16.6824 55.9917 16.8085 56.4035 16.8085C56.8152 16.8085 57.2117 16.6824 57.5131 16.4556C57.8144 16.2288 57.9983 15.9181 58.0278 15.5861V1.43035C58.0067 1.09359 57.8263 0.776255 57.524 0.543935C57.2217 0.311615 56.8206 0.182068 56.4035 0.182068C55.9864 0.182068 55.5852 0.311615 55.2829 0.543935C54.9806 0.776255 54.8003 1.09359 54.7792 1.43035V15.5861Z" fill="#00BCEB"/>
<path d="M63.8021 12.9503C63.8333 13.2816 64.0179 13.5912 64.3192 13.8172C64.6205 14.0431 65.0162 14.1688 65.4271 14.1691C65.8381 14.1691 66.2339 14.0434 66.5351 13.8174C66.8363 13.5914 67.0208 13.2817 67.0514 12.9503V6.40606C67.0364 6.06586 66.8586 5.74367 66.5556 5.5073C66.2525 5.27094 65.8479 5.13885 65.4268 5.13885C65.0057 5.13885 64.601 5.27094 64.298 5.5073C63.995 5.74367 63.8172 6.06586 63.8021 6.40606V12.9509" fill="#00BCEB"/>
<path d="M72.691 12.9503C72.7144 13.1974 72.8234 13.434 73.0056 13.6333C73.1878 13.8325 73.4357 13.9862 73.7209 14.0767C74.0062 14.1673 74.3172 14.191 74.6184 14.1452C74.9195 14.0994 75.1986 13.9859 75.4237 13.8177C75.7251 13.5915 75.9098 13.2816 75.9403 12.9503V10.031C75.9316 9.6874 75.7565 9.36024 75.4528 9.11972C75.1491 8.87921 74.7409 8.74451 74.3157 8.74451C73.8905 8.74451 73.4823 8.87921 73.1786 9.11972C72.8749 9.36024 72.6998 9.6874 72.691 10.031V12.9503Z" fill="#00BCEB"/>
</g>
<defs>
<clipPath id="clip0_4_245">
<rect width="75" height="32" fill="white" transform="translate(0.902832 0.167725)"/>
</clipPath>
</defs>
</svg>
