<svg width="170" height="27" viewBox="0 0 170 27" fill="none" xmlns="http://www.w3.org/2000/svg">
<g clip-path="url(#clip0_4_154)">
<mask id="mask0_4_154" style="mask-type:luminance" maskUnits="userSpaceOnUse" x="0" y="0" width="28" height="26">
<path fill-rule="evenodd" clip-rule="evenodd" d="M0.902893 0.167725H27.4598V25.4453H0.902893V0.167725Z" fill="white"/>
</mask>
<g mask="url(#mask0_4_154)">
<path fill-rule="evenodd" clip-rule="evenodd" d="M24.9019 17.7836C24.9019 17.9449 24.7739 18.1056 24.6459 18.1586L16.3908 22.1238C16.1349 22.2309 15.8149 22.1768 15.6869 21.9631C15.6229 21.9089 15.6229 21.8018 15.6229 21.7482V13.8195C15.6229 13.6588 15.751 13.4975 15.8789 13.444L24.134 9.42577C24.3899 9.31862 24.7099 9.3722 24.8379 9.5865C24.9019 9.64008 24.9019 9.74723 24.9019 9.80136V17.7836ZM12.7409 21.8026C12.7409 22.0704 12.4849 22.2317 12.229 22.2317C12.165 22.2317 12.037 22.2317 11.973 22.1776L3.71792 18.2135C3.52593 18.1594 3.46194 17.9987 3.46194 17.8385V9.80214C3.46194 9.53426 3.71792 9.37299 3.97389 9.37299C4.03788 9.37299 4.16586 9.37299 4.22986 9.42656L12.4849 13.3917C12.6769 13.4447 12.7409 13.6055 12.7409 13.7662V21.8026ZM5.63903 6.58705L13.8941 2.56886C14.0861 2.51475 14.2781 2.51475 14.4061 2.56886L22.6612 6.58705C22.9171 6.69366 22.9811 6.96154 22.8531 7.17584L22.6612 7.33657L14.4061 11.3547C14.2141 11.4089 14.0221 11.4089 13.8941 11.3547L5.63903 7.33657C5.38306 7.22942 5.31907 6.96154 5.44706 6.74724L5.63903 6.58705ZM27.4599 7.01516C27.4599 6.74728 27.332 6.4794 27.14 6.31921H27.076L27.012 6.26509L26.948 6.21152H26.884L14.7254 0.318183L14.6614 0.264608C14.3414 0.10388 13.8935 0.157992 13.5735 0.318183L1.41484 6.15794H1.35084L1.28685 6.21152L1.22286 6.26509L1.15886 6.31921C0.966886 6.4794 0.902893 6.6937 0.902893 6.96158V7.01516V18.7487C0.902893 19.0697 1.15886 19.3912 1.47883 19.5524L13.6375 25.3917C13.6375 25.3917 13.7015 25.3917 13.7015 25.4457H13.7655H13.8294H13.8935H13.9575H14.0214H14.2774H14.3414H14.4054H14.4694H14.5334H14.5973C14.5973 25.4457 14.6614 25.4457 14.6614 25.3917L26.82 19.5524C27.204 19.3912 27.396 19.0697 27.396 18.7487L27.4599 7.01516Z" fill="#9FEF00"/>
</g>
<path fill-rule="evenodd" clip-rule="evenodd" d="M46.7228 17.7303V13.98C46.7228 13.8728 46.5947 13.7657 46.4668 13.7657H42.5633C42.4353 13.7657 42.3072 13.8728 42.3072 13.98V17.7303C42.3072 17.8374 42.1792 17.9446 42.0513 17.9446H39.6836C39.5555 17.9446 39.4276 17.8374 39.4276 17.7303V8.03309C39.4276 7.92594 39.5555 7.81879 39.6836 7.81879H42.0513C42.1792 7.81879 42.3072 7.92594 42.3072 8.03309V11.4083C42.3072 11.5155 42.4353 11.6226 42.5633 11.6226H46.4668C46.5947 11.6226 46.7228 11.5155 46.7228 11.4083V8.03309C46.7228 7.92594 46.8508 7.81879 46.9788 7.81879H49.3464C49.4744 7.81879 49.6025 7.92594 49.6025 8.03309V17.7303C49.6025 17.8374 49.4744 17.9446 49.3464 17.9446H46.9788C46.8508 17.9446 46.7228 17.8374 46.7228 17.7303Z" fill="white"/>
<path fill-rule="evenodd" clip-rule="evenodd" d="M59.648 13.0697C59.2001 11.8375 58.7521 10.6052 58.4322 9.373H58.3681C57.9842 10.6052 57.6002 11.8375 57.1523 13.0697L57.0243 13.4448C56.9603 13.5519 57.0883 13.7126 57.2163 13.7662H57.2803H59.456C59.584 13.7662 59.712 13.6596 59.712 13.5519V13.4983L59.648 13.0697ZM56.193 15.9623L55.553 17.7838C55.4891 17.891 55.4251 17.9451 55.2971 17.9451H52.8014C52.6734 17.9451 52.5454 17.8374 52.5454 17.7303V17.6772L56.513 7.97951C56.577 7.87236 56.6409 7.81879 56.7689 7.81879H60.2246C60.3526 7.81879 60.4805 7.87236 60.4805 7.97951L64.4481 17.6772C64.5121 17.7838 64.4481 17.9451 64.2561 17.9981H64.1921H61.6964C61.5684 17.9981 61.4404 17.9451 61.4404 17.8374L60.8005 16.0158C60.7365 15.9087 60.6725 15.8551 60.5446 15.8551H56.577C56.321 15.8021 56.193 15.8551 56.193 15.9623Z" fill="white"/>
<path fill-rule="evenodd" clip-rule="evenodd" d="M76.9919 11.4081H74.4962C74.3682 11.4081 74.2402 11.301 74.2402 11.1938C74.1123 10.283 73.1523 9.58656 72.0644 9.64014C70.4647 9.64014 69.4407 10.8188 69.4407 12.8011C69.4407 14.7834 70.4006 15.9621 72.0005 15.9621C73.1523 16.0157 74.1123 15.3192 74.2402 14.3548C74.2402 14.2477 74.3682 14.1405 74.4962 14.1405H77.0559C77.1839 14.1405 77.3119 14.2477 77.3119 14.3548V14.4084C76.9279 16.7657 74.9441 18.1051 71.9365 18.1051C68.4169 18.1051 66.3051 16.0692 66.3051 12.8011C66.3051 9.53299 68.4809 7.49713 72.0005 7.49713C75.0081 7.49713 76.9919 8.89008 77.2479 11.1403C77.3119 11.301 77.1839 11.4081 76.9919 11.4081Z" fill="white"/>
<path fill-rule="evenodd" clip-rule="evenodd" d="M90.8146 17.9451H87.8069C87.7423 17.9451 87.6149 17.891 87.5503 17.838L83.9034 13.2299H83.8394V17.6772C83.8394 17.7838 83.7108 17.891 83.5834 17.891H81.2157C81.0877 17.891 80.9597 17.7838 80.9597 17.6772V8.03356C80.9597 7.92641 81.0877 7.81926 81.2157 7.81926H83.5834C83.7108 7.81926 83.8394 7.92641 83.8394 8.03356V12.1589H83.9034L87.359 7.87284C87.4224 7.81926 87.487 7.76569 87.6149 7.76569H90.43C90.5586 7.76569 90.6866 7.87284 90.6866 7.97945C90.6866 8.03357 90.6866 8.08718 90.622 8.14076L86.655 12.4268C86.5904 12.5334 86.5904 12.6411 86.655 12.6947L90.942 17.516C91.0066 17.6231 91.0066 17.7838 90.8786 17.838C90.942 17.9451 90.8786 17.9451 90.8146 17.9451Z" fill="white"/>
<path fill-rule="evenodd" clip-rule="evenodd" d="M99.0675 9.15815V17.6767C99.0675 17.7838 98.9388 17.891 98.8121 17.891H97.7868C97.6591 17.891 97.5314 17.7838 97.5314 17.6767V9.15815C97.5314 9.051 97.4028 8.94385 97.2751 8.94385H93.6923C93.5637 8.94385 93.4357 8.83669 93.4357 8.72954V8.03309C93.4357 7.92594 93.5637 7.81879 93.6923 7.81879H103.034C103.163 7.81879 103.292 7.92594 103.292 8.03309V8.72954C103.292 8.83669 103.163 8.94385 103.034 8.94385H99.4515C99.1952 8.94385 99.0675 9.051 99.0675 9.15815Z" fill="white"/>
<path fill-rule="evenodd" clip-rule="evenodd" d="M114.17 17.7303V13.4978C114.17 13.3906 114.043 13.2835 113.914 13.2835H108.283C108.155 13.2835 108.026 13.3906 108.026 13.4978V17.7303C108.026 17.8374 107.899 17.9446 107.771 17.9446H106.747C106.619 17.9446 106.491 17.8374 106.491 17.7303V8.03309C106.491 7.92594 106.619 7.81879 106.747 7.81879H107.771C107.899 7.81879 108.026 7.92594 108.026 8.03309V11.8905C108.026 11.9977 108.155 12.1048 108.283 12.1048H113.914C114.043 12.1048 114.17 11.9977 114.17 11.8905V8.03309C114.17 7.92594 114.298 7.81879 114.426 7.81879H115.45C115.578 7.81879 115.706 7.92594 115.706 8.03309V17.7303C115.706 17.8374 115.578 17.9446 115.45 17.9446H114.426C114.298 17.9446 114.17 17.8374 114.17 17.7303Z" fill="white"/>
<path fill-rule="evenodd" clip-rule="evenodd" d="M122.235 9.15815V11.8905C122.235 11.9977 122.362 12.1048 122.49 12.1048H127.801C127.93 12.1048 128.058 12.212 128.058 12.3191V13.0156C128.058 13.1228 127.93 13.2299 127.801 13.2299H122.49C122.362 13.2299 122.235 13.3371 122.235 13.4442V16.4445C122.235 16.5516 122.362 16.6588 122.49 16.6588H128.378C128.505 16.6588 128.633 16.7659 128.633 16.8731V17.5695C128.633 17.6767 128.505 17.7838 128.378 17.7838H120.954C120.826 17.7838 120.699 17.6767 120.699 17.5695V8.03309C120.699 7.92594 120.826 7.81879 120.954 7.81879H128.249C128.378 7.81879 128.505 7.92594 128.505 8.03309V8.72954C128.505 8.83669 128.378 8.94385 128.249 8.94385H122.554C122.362 8.94385 122.235 9.051 122.235 9.15815Z" fill="white"/>
<path fill-rule="evenodd" clip-rule="evenodd" d="M135.48 15.8022C135.48 15.9088 135.608 16.0159 135.736 16.0159H137.08C138.488 16.0159 139 15.6409 139 14.8914C139 14.0877 138.424 13.7127 137.015 13.7127H135.736C135.608 13.7127 135.48 13.8199 135.48 13.927V15.8022ZM135.48 11.6768C135.48 11.7839 135.608 11.8911 135.736 11.8911H137.015C138.36 11.8911 138.872 11.516 138.872 10.766C138.872 10.0159 138.295 9.69445 137.08 9.69445H135.736C135.608 9.69445 135.48 9.8016 135.48 9.90876V11.6768ZM137.336 7.76569C140.344 7.76569 141.751 8.83724 141.751 10.3904C141.815 11.4619 140.983 12.4804 139.704 12.7483V12.8013C141.303 13.1233 142.071 13.8728 142.071 15.1592C142.071 16.8736 140.408 17.9987 137.656 17.9987H132.921C132.792 17.9987 132.665 17.891 132.665 17.7838V8.03356C132.665 7.92641 132.792 7.81926 132.921 7.81926L137.336 7.76569Z" fill="white"/>
<path fill-rule="evenodd" clip-rule="evenodd" d="M147.96 12.8556C147.96 14.8379 148.984 16.0166 150.775 16.0166C152.503 16.0166 153.527 14.8379 153.527 12.8556C153.527 10.8733 152.503 9.69461 150.775 9.69461C148.984 9.69461 147.96 10.8733 147.96 12.8556ZM156.663 12.855C156.663 16.1232 154.423 18.159 150.774 18.159C147.127 18.159 144.887 16.1232 144.887 12.855C144.887 9.58691 147.127 7.55103 150.774 7.55103C154.423 7.55103 156.663 9.58691 156.663 12.855Z" fill="white"/>
<path fill-rule="evenodd" clip-rule="evenodd" d="M169.077 17.9451H166.261C166.132 17.9451 166.068 17.891 166.005 17.838L163.892 14.4627H163.829L161.717 17.838C161.653 17.891 161.589 17.9451 161.461 17.9451H158.709C158.582 17.9451 158.453 17.838 158.453 17.7308C158.453 17.6772 158.453 17.6231 158.518 17.6231L161.909 12.909C161.972 12.8554 161.972 12.7483 161.909 12.6411L158.709 8.14076C158.646 8.03357 158.646 7.87284 158.837 7.81926C158.901 7.81926 158.901 7.76569 158.966 7.76569H161.717C161.845 7.76569 161.909 7.81926 161.972 7.87284L163.957 11.141H164.021L166.005 7.87284C166.068 7.81926 166.132 7.76569 166.261 7.76569H168.948C169.077 7.76569 169.204 7.87284 169.204 7.97945C169.204 8.03357 169.204 8.08718 169.141 8.08718L165.941 12.5875C165.877 12.6411 165.877 12.7483 165.941 12.8554L169.396 17.5701C169.461 17.6772 169.461 17.838 169.332 17.891C169.141 17.9451 169.077 17.9451 169.077 17.9451Z" fill="white"/>
</g>
<defs>
<clipPath id="clip0_4_154">
<rect width="169" height="26" fill="white" transform="translate(0.902893 0.167725)"/>
</clipPath>
</defs>
</svg>
