<svg width="151" height="27" viewBox="0 0 151 27" fill="none" xmlns="http://www.w3.org/2000/svg">
<g clip-path="url(#clip0_4_148)">
<path d="M53.8499 15.1429L52.9559 17.1987H52.8813C52.7323 16.7352 52.4592 16.0297 52.0121 15.1832L47.2191 5.40802H42.5254V20.9879H45.6297V11.3739C45.6297 10.7693 45.6297 10.084 45.6049 9.23748C45.58 8.81422 45.5304 8.49174 45.5055 8.24988H45.58C45.729 8.85453 45.9029 9.29794 46.027 9.58011L51.7886 20.9476H53.9741L59.686 9.47934C59.8102 9.21732 59.9343 8.69329 60.0585 8.24988H60.133C60.0585 9.39872 60.0088 10.4266 59.984 11.0514V20.9274H63.287V5.36771H58.7671L53.8499 15.1429ZM66.4161 9.76151H69.6446V20.9274H66.4161V9.76151ZM68.0552 5.04523C67.5088 5.04523 67.0618 5.20647 66.6893 5.48864C66.3168 5.77081 66.1181 6.1336 66.1181 6.57701C66.1181 7.00027 66.3168 7.36306 66.6893 7.64523C67.0618 7.9274 67.5088 8.06848 68.0552 8.06848C68.6015 8.06848 69.0734 7.90724 69.4211 7.64523C69.7936 7.36306 69.9923 7.00027 69.9923 6.57701C69.9923 6.15376 69.7936 5.79096 69.4211 5.48864C69.0982 5.20647 68.6264 5.04523 68.0552 5.04523ZM81.0933 9.66073C80.4972 9.55996 79.8764 9.49949 79.2804 9.49949C77.8151 9.49949 76.4741 9.76151 75.3565 10.2855C74.239 10.8096 73.3449 11.5352 72.7737 12.4421C72.1777 13.3693 71.8797 14.4375 71.8797 15.6669C71.8797 16.7352 72.1777 17.6824 72.7489 18.5491C73.3201 19.3956 74.1148 20.0809 75.1827 20.5445C76.2009 21.008 77.3929 21.2499 78.734 21.2499C80.2737 21.2499 81.59 20.9879 82.633 20.5041L82.6578 20.484V18.0654L82.5337 18.146C82.0618 18.4282 81.5154 18.67 80.9691 18.8111C80.3979 18.9724 79.8764 19.053 79.4294 19.053C78.138 19.053 77.1198 18.7507 76.3996 18.0855C75.6545 17.4406 75.282 16.5538 75.282 15.4452C75.282 14.2964 75.6545 13.3894 76.4244 12.7243C77.1943 12.0592 78.2125 11.7165 79.4542 11.7165C80.4972 11.7165 81.5651 11.9987 82.5337 12.5631L82.6578 12.6437V10.084L82.633 10.0638C82.2108 9.92275 81.739 9.76151 81.0933 9.66073ZM91.7472 9.58011C90.9525 9.58011 90.2075 9.78166 89.5618 10.2049C89.0154 10.5677 88.6429 11.0917 88.3201 11.7165H88.2952V9.76151H85.0668V20.9274H88.2952V15.2235C88.2952 14.2561 88.5436 13.4499 89.09 12.8654C89.6363 12.2607 90.3317 11.9584 91.176 11.9584C91.4741 11.9584 91.7721 12.0189 92.1446 12.0592C92.4923 12.1398 92.7406 12.2204 92.9145 12.3212L93.0386 12.4018V9.78166L92.9641 9.76151C92.7406 9.64058 92.2936 9.58011 91.7472 9.58011ZM100.539 9.51965C98.2787 9.51965 96.4658 10.0638 95.1992 11.1321C93.9078 12.2003 93.287 13.6716 93.287 15.5258C93.287 17.2592 93.9327 18.67 95.1744 19.6979C96.4161 20.7057 98.1049 21.2297 100.216 21.2297C102.426 21.2297 104.189 20.6855 105.456 19.5972C106.747 18.5088 107.368 17.0576 107.368 15.2638C107.368 13.4902 106.772 12.0793 105.555 11.0514C104.388 10.0235 102.674 9.51965 100.539 9.51965ZM103.121 18.1057C102.525 18.7305 101.582 19.0328 100.414 19.0328C99.2472 19.0328 98.3035 18.7305 97.633 18.0654C96.9625 17.4406 96.6396 16.5336 96.6396 15.3848C96.6396 14.1956 96.9873 13.2886 97.633 12.6437C98.3035 11.9987 99.2224 11.6762 100.39 11.6762C101.532 11.6762 102.426 11.9786 103.072 12.6034C103.717 13.2282 104.065 14.1352 104.065 15.3243C104.015 16.5336 103.742 17.4809 103.121 18.1057ZM114.57 14.3972C113.552 14.0545 112.906 13.7925 112.608 13.5708C112.36 13.3693 112.236 13.0871 112.236 12.7243C112.236 12.422 112.385 12.1196 112.757 11.9181C113.13 11.7165 113.552 11.6158 114.173 11.6158C114.719 11.6158 115.29 11.6964 115.837 11.8173C116.383 11.9383 116.88 12.1196 117.277 12.3615L117.401 12.4421V9.98321L117.327 9.96306C116.954 9.84213 116.457 9.7212 115.861 9.62042C115.265 9.5398 114.719 9.49949 114.272 9.49949C112.732 9.49949 111.466 9.80182 110.472 10.4669C109.479 11.0917 109.007 11.9383 109.007 12.9258C109.007 13.4499 109.107 13.9134 109.33 14.2964C109.554 14.6793 109.876 15.0421 110.323 15.3445C110.77 15.6266 111.416 15.9491 112.31 16.2514C113.055 16.5134 113.626 16.715 113.974 16.8762C114.322 17.0375 114.545 17.2189 114.719 17.36C114.843 17.5212 114.918 17.7227 114.918 17.9848C114.918 18.7305 114.222 19.0933 112.807 19.0933C112.26 19.0933 111.689 19.0127 111.019 18.8313C110.348 18.6499 109.727 18.3879 109.206 18.0855L109.082 18.0049V20.5646L109.156 20.5848C109.628 20.7662 110.199 20.8871 110.895 21.0282C111.59 21.129 112.211 21.2096 112.757 21.2096C114.421 21.2096 115.787 20.9072 116.756 20.2421C117.749 19.5972 118.27 18.7708 118.27 17.7026C118.27 16.9569 118.022 16.2917 117.476 15.7879C116.756 15.3041 115.861 14.8003 114.57 14.3972ZM126.789 9.51965C124.529 9.51965 122.716 10.0638 121.449 11.1321C120.183 12.2003 119.537 13.6716 119.537 15.5258C119.537 17.2592 120.183 18.67 121.424 19.6979C122.666 20.7057 124.355 21.2297 126.466 21.2297C128.676 21.2297 130.439 20.6855 131.706 19.5972C132.997 18.5088 133.618 17.0576 133.618 15.2638C133.618 13.4902 133.022 12.0793 131.805 11.0514C130.638 10.0235 128.924 9.51965 126.789 9.51965ZM129.347 18.1057C128.751 18.7305 127.807 19.0328 126.64 19.0328C125.448 19.0328 124.529 18.7305 123.858 18.0654C123.188 17.4406 122.865 16.5336 122.865 15.3848C122.865 14.1956 123.212 13.2886 123.858 12.6437C124.529 11.9987 125.448 11.6762 126.615 11.6762C127.732 11.6762 128.651 11.9786 129.297 12.6034C129.943 13.2282 130.29 14.1352 130.29 15.3243C130.29 16.5336 129.967 17.4809 129.347 18.1057ZM150.878 11.9181V9.76151H147.625V6.45608L147.525 6.47624L144.446 7.22197L144.371 7.24213V9.76151H139.504V8.35065C139.504 7.70569 139.703 7.20182 140.05 6.87934C140.398 6.55686 140.919 6.39562 141.565 6.39562C142.012 6.39562 142.484 6.47624 143.006 6.65763L143.13 6.7181V4.44058L143.055 4.42042C142.608 4.29949 142.012 4.21887 141.242 4.21887C140.274 4.21887 139.429 4.40027 138.659 4.70259C137.89 5.04523 137.318 5.50879 136.896 6.1336C136.474 6.73825 136.251 7.42352 136.251 8.20957V9.76151H133.991V11.8979H136.251V20.9274H139.504V11.9181H144.371V17.6623C144.371 20.0204 145.737 21.2096 148.469 21.2096C148.916 21.2096 149.388 21.1491 149.835 21.0886C150.307 21.008 150.655 20.9072 150.853 20.8266L150.878 20.8065V18.6499L150.754 18.7305C150.555 18.8313 150.381 18.9119 150.083 18.9724C149.835 19.0328 149.611 19.053 149.438 19.053C148.792 19.053 148.345 18.9321 148.022 18.6297C147.724 18.3476 147.575 17.884 147.575 17.1987V11.9181H150.878Z" fill="#737373"/>
<path d="M0.902893 0.167725H16.1264V12.5228H0.902893V0.167725Z" fill="#F25022"/>
<path d="M17.7158 0.167725H32.9393V12.5228H17.7158V0.167725Z" fill="#7FBA00"/>
<path d="M0.902893 13.8127H16.1264V26.1677H0.902893V13.8127Z" fill="#00A4EF"/>
<path d="M17.7158 13.8127H32.9393V26.1677H17.7158V13.8127Z" fill="#FFB900"/>
</g>
<defs>
<clipPath id="clip0_4_148">
<rect width="150" height="26" fill="white" transform="translate(0.902893 0.167725)"/>
</clipPath>
</defs>
</svg>
