<svg width="152" height="41" viewBox="0 0 152 41" fill="none" xmlns="http://www.w3.org/2000/svg">
<g clip-path="url(#clip0_4_172)">
<path d="M58.8904 0.323547H67.6627V1.05082H63.7926V9.15472H62.7605V1.05082H58.8904V0.323547Z" fill="white"/>
<path d="M68.6302 0.323547H69.7268V4.1677H76.2415V0.323547H77.2736V9.15472H76.2415V4.89498H69.7268V9.15472H68.6302V0.323547Z" fill="white"/>
<path d="M79.5312 0.323547H87.078V1.05082H80.5632V4.21965H86.6909V4.94692H80.5632V8.42744H87.1425V9.15472H79.4667L79.5312 0.323547Z" fill="white"/>
<path d="M58.8904 31.1288H65.9211V31.8561H59.9869V35.0249H65.2116V35.7522H59.9869V39.96H58.8904V31.1288Z" fill="white"/>
<path d="M71.791 39.4404C74.6936 39.4404 75.9191 37.4664 75.9191 35.5443C75.9191 33.6223 74.6936 31.6482 71.791 31.6482C68.8884 31.6482 67.6628 33.6223 67.6628 35.5443C67.6628 37.4664 68.8884 39.4404 71.791 39.4404ZM71.791 30.9729C75.2096 30.9729 76.9512 33.1547 76.9512 35.5963C76.9512 38.0378 75.2096 40.2197 71.791 40.2197C68.3078 40.2197 66.5663 38.0378 66.5663 35.5963C66.5663 33.1547 68.3078 30.9729 71.791 30.9729Z" fill="white"/>
<path d="M78.4991 31.1288H79.5312V36.6353C79.5312 38.6613 80.6922 39.4924 82.7563 39.4924C84.8204 39.4924 85.9814 38.7132 85.9814 36.6353V31.1288H87.0135V36.7911C87.0135 38.6093 85.7879 40.1677 82.7563 40.1677C79.7247 40.1677 78.4991 38.6093 78.4991 36.7911V31.1288Z" fill="white"/>
<path d="M89.1421 31.1288H90.3031L96.6889 38.6093V31.1288H97.7854V39.96H96.6244L90.1741 32.4794V39.96H89.1421V31.1288Z" fill="white"/>
<path d="M101.01 39.2846H103.268C106.429 39.2846 107.783 38.2457 107.783 35.5963C107.783 32.947 106.429 31.908 103.268 31.908H101.01V39.2846ZM99.9784 31.1288H103.784C107.138 31.1807 108.815 32.6353 108.815 35.5444C108.815 38.4535 107.074 39.908 103.784 39.96H99.9784V31.1288Z" fill="white"/>
<path d="M112.105 36.5314H116.427L114.298 32.0119L112.105 36.5314ZM113.718 31.1288H114.879L119.2 39.96H118.104L116.749 37.2067H111.782L110.428 39.96H109.267L113.718 31.1288Z" fill="white"/>
<path d="M117.975 31.1288H126.682V31.8561H122.877V39.96H121.845V31.8561H117.975V31.1288Z" fill="white"/>
<path d="M128.876 31.1288H127.844V39.96H128.876V31.1288Z" fill="white"/>
<path d="M135.777 39.4404C138.68 39.4404 139.905 37.4664 139.905 35.5443C139.905 33.6223 138.68 31.6482 135.777 31.6482C132.875 31.6482 131.649 33.6223 131.649 35.5443C131.649 37.4664 132.81 39.4404 135.777 39.4404ZM135.777 30.9729C139.196 30.9729 140.937 33.1547 140.937 35.5963C140.937 38.0378 139.196 40.2197 135.777 40.2197C132.294 40.2197 130.552 38.0378 130.552 35.5963C130.552 33.1547 132.294 30.9729 135.777 30.9729Z" fill="white"/>
<path d="M142.55 31.1288H143.711L150.097 38.6093H150.161V31.1288H151.193V39.96H150.032L143.582 32.4794V39.96H142.55V31.1288Z" fill="white"/>
<path d="M58.8904 11.8041H64.9536V23.5963H73.6614V27.6482H58.8904V11.8041Z" fill="white"/>
<path d="M83.7239 11.8041H77.6606V27.6482H83.7239V11.8041Z" fill="white"/>
<path d="M88.239 11.8041H94.4312L100.107 20.2716H100.172V11.8041H105.913V27.6482H100.043L93.9797 18.9729H93.9152V27.6482H88.239V11.8041Z" fill="white"/>
<path d="M128.295 21.5184C128.295 25.9339 125.392 28.0119 119.329 28.0119C113.266 28.0119 110.363 25.9339 110.363 21.5184V11.8041H116.427V20.4275C116.427 22.0378 116.427 24.0638 119.394 24.0638C122.232 24.0638 122.232 22.0378 122.232 20.4275V11.8041H128.295V21.5184Z" fill="white"/>
<path d="M137.97 19.2326L131.456 11.8041H138.551L141.582 16.1158L144.485 11.8041H151.193L144.872 19.2846L151.903 27.6482H144.614L141.26 22.921L137.777 27.6482H130.875L137.97 19.2326Z" fill="white"/>
<path d="M10.8362 32.0119V16.1158H0.902832V39.9599H30.5739V32.0119H10.8362Z" fill="white"/>
<path d="M50.3116 0.167725H0.902832V12.1158H10.7717V8.16772H40.4428V32.0119H35.5406V39.9599H50.3116V0.167725Z" fill="white"/>
</g>
<defs>
<clipPath id="clip0_4_172">
<rect width="151" height="40" fill="white" transform="translate(0.902832 0.167725)"/>
</clipPath>
</defs>
</svg>
