<svg width="152" height="47" viewBox="0 0 152 47" fill="none" xmlns="http://www.w3.org/2000/svg">
<g clip-path="url(#clip0_4_216)">
<path d="M24.3602 11.1433L12.6306 5.65552L0.902832 11.1433V5.65552L12.6325 0.167725L24.3622 5.65552V11.1433H24.3602Z" fill="#A435F0"/>
<path d="M0.902832 15.7511H7.04674V27.8475C7.04674 30.974 9.92665 32.4966 12.6325 32.4966C15.3591 32.4966 18.2182 30.9326 18.2182 27.8061V15.7511H24.3622V28.1358C24.3622 31.0154 23.2456 33.2372 21.011 34.7598C18.7763 36.2824 15.9836 37.023 12.5814 37.023C9.17923 37.023 6.38638 36.2824 4.2028 34.7598C2.01922 33.2372 0.902832 31.0982 0.902832 28.2585V15.7511Z" fill="black"/>
<path d="M77.4795 30.7853C75.6195 32.127 73.5002 32.7848 71.0839 32.7848C66.6789 32.7848 63.7215 30.75 63.3884 27.599H83.2412C83.2412 27.599 83.3718 26.5809 83.3718 25.6256C83.3718 22.6632 82.2043 20.1946 79.8182 18.1782C77.4834 16.1619 74.4369 15.1745 70.7301 15.1745C66.8208 15.1745 63.6211 16.1619 61.0818 18.1782C58.5937 20.1946 57.324 22.8273 57.324 26.1194V26.2834C57.324 29.5341 58.5937 32.1254 61.0818 34.0605C63.57 35.994 66.87 36.9815 70.8814 36.9815C75.5457 36.9815 79.2582 35.4911 82.0434 32.9197L77.4795 30.7853ZM65.8029 20.6883C67.1727 19.8235 68.8493 19.3712 70.7282 19.3712C72.505 19.3712 73.9771 19.8235 75.2468 20.7297C76.4597 21.5546 77.1143 22.5682 77.1711 23.7335H63.5435C63.7404 22.5298 64.4916 21.5148 65.8029 20.6883Z" fill="black"/>
<path d="M139.329 39.7769C136.834 44.5455 134.226 46.1678 130.228 46.1678C129.543 46.1678 127.458 46.1678 127.458 46.1678V41.7549C127.458 41.7549 128.322 41.7549 129.698 41.7549C131.074 41.7549 132.353 41.3363 133.571 39.0562C134.79 36.7761 134.79 36.7761 134.79 36.7761L124.279 15.7511H130.525L137.99 30.8927L145.657 15.7511H151.903C151.903 15.7511 141.897 34.8687 139.329 39.7769Z" fill="black"/>
<path d="M48.2813 7.80994V17.6294C46.268 16.1666 43.1363 15.2972 40.107 15.2972C36.5024 15.2972 33.4561 16.3261 30.9678 18.4237C28.5306 20.4814 27.3121 23.0313 27.3121 26.1179C27.3121 29.2045 28.5306 31.7545 30.9678 33.8536C33.4561 35.9113 36.5024 36.9401 40.107 36.9401C44.266 36.9401 46.8924 35.6169 48.2813 34.5789V36.4879H54.374V7.80994H48.2813ZM46.4535 30.6459C44.9812 31.8388 43.1023 32.4567 40.9187 32.4567C38.7351 32.4567 36.9584 31.8388 35.4863 30.6459C34.0652 29.4529 33.3538 27.9303 33.3538 26.1195C33.3538 24.3086 34.0652 22.786 35.4863 21.5931C36.9584 20.4001 38.7351 19.7822 40.9187 19.7822C43.1023 19.7822 44.9812 20.4001 46.4535 21.5931C47.9766 22.786 48.7392 24.3086 48.7392 26.1195C48.7392 27.9303 47.9766 29.4529 46.4535 30.6459Z" fill="black"/>
<path d="M114.807 15.3401C110.178 15.3401 107.771 16.8965 106.123 18.3945C105.465 17.3763 103.609 15.3401 99.2698 15.3401C95.6047 15.3401 93.442 16.8413 92.3653 17.9115V15.7525H86.3235V36.4893H92.3653V24.5569C92.3653 21.7587 94.4978 19.7423 97.3418 19.7423C100.237 19.7423 101.911 21.5117 101.911 24.3499V36.4879H107.953V24.5555C107.953 21.7157 110.034 19.7407 113.03 19.7407C115.925 19.7407 117.599 21.5103 117.599 24.3485V36.4863H123.692V23.6493C123.692 18.2427 120.106 15.3401 114.807 15.3401Z" fill="black"/>
</g>
<defs>
<clipPath id="clip0_4_216">
<rect width="151" height="46" fill="white" transform="translate(0.902832 0.167725)"/>
</clipPath>
</defs>
</svg>
