<svg width="44" height="44" viewBox="0 0 44 44" fill="none" xmlns="http://www.w3.org/2000/svg">
<path d="M12.4997 40.3334V35.0956C11.9533 29.6377 5.5 26.7154 5.5 18.3334C5.5 9.95508 10.4995 3.56408 20.5003 3.66675C27.6998 3.74375 34.4997 7.85775 34.4997 16.2397L38.5 22.5244C38.5 26.7154 34.4997 26.7154 34.4997 26.7154C34.4997 26.7154 35.5007 37.1911 26.499 37.1911V40.3334" stroke="#E6EDF3" stroke-width="1.5" stroke-linecap="round" stroke-linejoin="round"/>
<path d="M20.1667 22.0001C21.1391 22.0001 22.0718 21.6138 22.7594 20.9261C23.447 20.2385 23.8333 19.3059 23.8333 18.3334C23.8333 17.361 23.447 16.4283 22.7594 15.7407C22.0718 15.0531 21.1391 14.6667 20.1667 14.6667C19.1942 14.6667 18.2616 15.0531 17.5739 15.7407C16.8863 16.4283 16.5 17.361 16.5 18.3334C16.5 19.3059 16.8863 20.2385 17.5739 20.9261C18.2616 21.6138 19.1942 22.0001 20.1667 22.0001Z" stroke="#E6EDF3" stroke-width="1.5" stroke-linecap="round" stroke-linejoin="round"/>
<path d="M20.1667 23.8335C21.6254 23.8335 23.0244 23.254 24.0558 22.2226C25.0873 21.1911 25.6667 19.7922 25.6667 18.3335C25.6667 16.8748 25.0873 15.4759 24.0558 14.4444C23.0244 13.413 21.6254 12.8335 20.1667 12.8335C18.7081 12.8335 17.3091 13.413 16.2777 14.4444C15.2462 15.4759 14.6667 16.8748 14.6667 18.3335C14.6667 19.7922 15.2462 21.1911 16.2777 22.2226C17.3091 23.254 18.7081 23.8335 20.1667 23.8335Z" stroke="#E6EDF3" stroke-width="1.5" stroke-linecap="round" stroke-linejoin="round" stroke-dasharray="0.3 2"/>
</svg>
