<svg width="44" height="45" viewBox="0 0 44 45" fill="none" xmlns="http://www.w3.org/2000/svg">
<path d="M5.5 22.5C5.5 20.2218 5.93389 18.0792 6.80167 16.0723C7.67067 14.0654 8.84828 12.3195 10.3345 10.8345C11.8195 9.34706 13.5654 8.16944 15.5723 7.30167C17.5792 6.43389 19.7218 6 22 6C26.0211 6 29.5228 7.25156 32.505 9.75467C35.4872 12.2578 37.3481 15.405 38.0875 19.1963C38.1608 19.5043 38.1394 19.7946 38.0233 20.0672C37.906 20.3397 37.7056 20.4974 37.422 20.5402C37.1446 20.5756 36.9074 20.5004 36.7107 20.3147C36.5151 20.1289 36.3837 19.8967 36.3165 19.618C35.8655 17.198 34.8706 15.0322 33.3318 13.1207C31.7906 11.2116 29.8467 9.79317 27.5 8.8655V9.66667C27.5 10.675 27.1413 11.5385 26.4238 12.2572C25.7064 12.9758 24.8429 13.3346 23.8333 13.3333H20.1667V17C20.1667 17.5194 19.9907 17.9552 19.6387 18.3072C19.2867 18.6592 18.8516 18.8346 18.3333 18.8333H14.6667V22.5H16.5715C16.9956 22.5 17.3482 22.6406 17.6293 22.9217C17.9104 23.2028 18.051 23.556 18.051 23.9813V28H16.5L7.7 19.2C7.60833 19.75 7.52461 20.3 7.44883 20.85C7.37306 21.4 7.33456 21.95 7.33333 22.5C7.33333 26.3696 8.63989 29.7123 11.253 32.5283C13.8661 35.3443 17.1294 36.8837 21.043 37.1465C21.3217 37.1599 21.5508 37.2541 21.7305 37.4288C21.9102 37.6048 22 37.823 22 38.0833C22 38.3437 21.901 38.5618 21.703 38.7378C21.505 38.9138 21.2667 38.9945 20.988 38.9798C16.6418 38.7085 12.9739 36.9937 9.98433 33.8355C6.99478 30.6773 5.5 26.8988 5.5 22.5ZM37.895 37.8578L32.2172 32.2515C31.6696 32.6426 31.0762 32.9482 30.437 33.1682C29.7978 33.3894 29.1243 33.5 28.4167 33.5C26.6188 33.5 25.1002 32.8803 23.8608 31.641C22.6203 30.3992 22 28.88 22 27.0833C22 25.2867 22.6203 23.7681 23.8608 22.5275C25.1014 21.2869 26.62 20.6667 28.4167 20.6667C30.2133 20.6667 31.7326 21.2869 32.9743 22.5275C34.2161 23.7681 34.8358 25.2867 34.8333 27.0833C34.8333 27.8142 34.7172 28.5048 34.485 29.155C34.2528 29.8064 33.9289 30.4059 33.5133 30.9535L39.1912 36.5598C39.3867 36.7309 39.4845 36.9412 39.4845 37.1905C39.4845 37.4398 39.3867 37.6623 39.1912 37.8578C39.0201 38.0289 38.8098 38.1145 38.5605 38.1145C38.3112 38.1145 38.0906 38.0289 37.895 37.8578ZM28.4167 31.6667C29.7 31.6667 30.7847 31.2236 31.6708 30.3375C32.5569 29.4514 33 28.3667 33 27.0833C33 25.8 32.5569 24.7153 31.6708 23.8292C30.7847 22.9431 29.7 22.5 28.4167 22.5C27.1333 22.5 26.0486 22.9431 25.1625 23.8292C24.2764 24.7153 23.8333 25.8 23.8333 27.0833C23.8333 28.3667 24.2764 29.4514 25.1625 30.3375C26.0486 31.2236 27.1333 31.6667 28.4167 31.6667Z" fill="#E6EDF3"/>
</svg>
