<svg width="55" height="48" viewBox="0 0 55 48" fill="none" xmlns="http://www.w3.org/2000/svg">
<path d="M24.7415 2.051C25.036 2.53696 25.2348 3.07798 25.3265 3.64318C25.4183 4.20837 25.4012 4.78668 25.2763 5.34507C25.1513 5.90346 24.921 6.431 24.5984 6.89757C24.2758 7.36414 23.8673 7.76061 23.3961 8.06433C18.2469 11.3725 14.1562 16.1716 11.6346 21.8627C14.1811 21.643 16.7325 22.2213 18.9551 23.5218C21.1777 24.8224 22.9679 26.7846 24.0916 29.1518C25.2153 31.5189 25.62 34.1808 25.253 36.7892C24.8859 39.3975 23.764 41.8309 22.0342 43.7708C20.3044 45.7108 18.0471 47.067 15.5578 47.662C13.0684 48.257 10.4629 48.0632 8.08207 47.1058C5.70127 46.1485 3.65607 44.4722 2.21406 42.2963C0.772043 40.1204 0.000370363 37.5462 0 34.9105V34.7926C0.00460057 34.4548 0.018709 34.1172 0.0423076 33.7802C0.0803846 33.1257 0.156539 32.2093 0.304615 31.0834C0.600769 28.8448 1.18038 25.7596 2.35231 22.2947C4.68769 15.3563 9.41769 6.78137 18.9115 0.66331C19.3827 0.359585 19.9072 0.154552 20.4552 0.0599155C21.0031 -0.0347212 21.5638 -0.0171071 22.1052 0.111752C22.6465 0.240611 23.158 0.478191 23.6103 0.810928C24.0627 1.14367 24.4471 1.56504 24.7415 2.051ZM54.3569 2.051C54.6514 2.53696 54.8502 3.07798 54.9419 3.64318C55.0337 4.20837 55.0166 4.78668 54.8917 5.34507C54.7667 5.90346 54.5364 6.431 54.2138 6.89757C53.8912 7.36414 53.4827 7.76061 53.0115 8.06433C47.8623 11.3725 43.7716 16.1716 41.25 21.8627C43.7964 21.643 46.3479 22.2213 48.5704 23.5218C50.793 24.8224 52.5833 26.7846 53.707 29.1518C54.8306 31.5189 55.2354 34.1808 54.8683 36.7892C54.5013 39.3975 53.3794 41.8309 51.6496 43.7708C49.9198 45.7108 47.6625 47.067 45.1731 47.662C42.6838 48.257 40.0783 48.0632 37.6975 47.1058C35.3167 46.1485 33.2715 44.4722 31.8294 42.2963C30.3874 40.1204 29.6157 37.5462 29.6154 34.9105V34.7926C29.62 34.4548 29.6341 34.1172 29.6577 33.7802C29.6958 33.1257 29.7719 32.2093 29.92 31.0834C30.2161 28.8448 30.7958 25.7596 31.9677 22.2947C34.3031 15.3563 39.0331 6.78137 48.5269 0.66331C48.9981 0.359585 49.5226 0.154552 50.0705 0.0599155C50.6185 -0.0347212 51.1792 -0.0171071 51.7206 0.111752C52.2619 0.240611 52.7734 0.478191 53.2257 0.810928C53.6781 1.14367 54.0624 1.56504 54.3569 2.051Z" fill="#E6EDF3"/>
</svg>
